<svg width="1601" height="1200" viewBox="0 0 1601 1200" fill="none" xmlns="http://www.w3.org/2000/svg">
<path d="M1081.4 678.5H520.1C492 678.5 469.2 655.7 469.2 627.6V289.3C469.2 261.2 492 238.4 520.1 238.4H1081.4C1109.5 238.4 1132.3 261.2 1132.3 289.3V627.6C1132.3 655.7 1109.5 678.5 1081.4 678.5ZM520.1 242.4C494.2 242.4 473.2 263.4 473.2 289.3V627.6C473.2 653.5 494.2 674.5 520.1 674.5H1081.4C1107.3 674.5 1128.3 653.5 1128.3 627.6V289.3C1128.3 263.4 1107.3 242.4 1081.4 242.4H520.1Z" fill="black"/>
<path d="M800.7 508.8C760.2 508.8 727.2 475.8 727.2 435.3C727.2 394.8 760.2 361.8 800.7 361.8C841.2 361.8 874.2 394.8 874.2 435.3C874.2 475.8 841.2 508.8 800.7 508.8ZM800.7 365.8C762.4 365.8 731.2 397 731.2 435.3C731.2 473.6 762.4 504.8 800.7 504.8C839 504.8 870.2 473.6 870.2 435.3C870.2 397 839 365.8 800.7 365.8Z" fill="black"/>
<path d="M792.7 462.7C786.4 462.7 781.2 457.5 781.2 451.2V419.6C781.2 417.7 781.7 415.8 782.7 413.9C785.8 408.4 792.9 406.5 798.4 409.6L825.8 425.4C827.6 426.4 829.1 427.9 830.1 429.7C831.6 432.3 832 435.4 831.2 438.4C830.4 441.4 828.5 443.8 825.8 445.3L798.4 461.1C796.8 462.2 794.8 462.7 792.7 462.7ZM792.7 412C790.1 412 787.6 413.3 786.2 415.7C785.5 417 785.2 418.3 785.2 419.5V451.1C785.2 455.2 788.6 458.6 792.7 458.6C794.1 458.6 795.3 458.3 796.5 457.6L823.9 441.8C825.6 440.8 826.9 439.2 827.4 437.3C827.9 435.3 827.7 433.3 826.7 431.5C826.1 430.3 825.1 429.4 824 428.8C824 428.8 824 428.8 823.9 428.8L796.5 413C795.3 412.4 794 412 792.7 412Z" fill="black"/>
<path d="M1382.2 549.7H1279.2V651.7H1382.2V549.7Z" fill="white"/>
<path d="M1380.2 551.7V649.7H1281.2V551.7H1380.2ZM1384.2 547.7H1277.2V653.7H1384.2V547.7Z" fill="black"/>
<path d="M1330.7 601.7C1359.14 601.7 1382.2 578.643 1382.2 550.2C1382.2 521.757 1359.14 498.7 1330.7 498.7C1302.26 498.7 1279.2 521.757 1279.2 550.2C1279.2 578.643 1302.26 601.7 1330.7 601.7Z" fill="white"/>
<path d="M1330.7 500.7C1358 500.7 1380.2 522.9 1380.2 550.2C1380.2 577.5 1358 599.7 1330.7 599.7C1303.4 599.7 1281.2 577.5 1281.2 550.2C1281.2 522.9 1303.4 500.7 1330.7 500.7ZM1330.7 496.7C1301.2 496.7 1277.2 520.7 1277.2 550.2C1277.2 579.7 1301.2 603.7 1330.7 603.7C1360.2 603.7 1384.2 579.7 1384.2 550.2C1384.2 520.7 1360.2 496.7 1330.7 496.7Z" fill="black"/>
<path d="M1358.2 652.7C1357.1 652.7 1356.2 651.8 1356.2 650.7V594.7C1356.2 593.6 1357.1 592.7 1358.2 592.7C1359.3 592.7 1360.2 593.6 1360.2 594.7V650.7C1360.2 651.8 1359.3 652.7 1358.2 652.7Z" fill="black"/>
<path d="M1330.2 652.7C1329.1 652.7 1328.2 651.8 1328.2 650.7V601.7C1328.2 600.6 1329.1 599.7 1330.2 599.7C1331.3 599.7 1332.2 600.6 1332.2 601.7V650.7C1332.2 651.8 1331.3 652.7 1330.2 652.7Z" fill="black"/>
<path d="M1304.2 652.7C1303.1 652.7 1302.2 651.8 1302.2 650.7V594.7C1302.2 593.6 1303.1 592.7 1304.2 592.7C1305.3 592.7 1306.2 593.6 1306.2 594.7V650.7C1306.2 651.8 1305.3 652.7 1304.2 652.7Z" fill="black"/>
<path d="M1397.8 385.9C1365.8 362.9 1348.1 404 1376.9 417.6C1345.1 417.2 1342.9 461.8 1381.8 455.2C1413.5 448.2 1457.8 436.3 1457.8 436.3C1457.8 436.3 1423.1 406.2 1397.8 385.9Z" fill="white"/>
<path d="M1374.3 457.9C1362.7 457.9 1357 452.8 1354.4 449.3C1350.1 443.4 1349.6 435.5 1353.2 428.5C1356.5 422 1362.8 417.6 1370.6 416.2C1364.3 411.5 1360.6 404.8 1360.4 397.5C1360.2 389.7 1364.1 382.7 1370.6 379.3C1375.2 376.9 1385 374.3 1399 384.3C1399 384.3 1399.1 384.3 1399.1 384.4C1424.1 404.5 1458.8 434.5 1459.2 434.8C1459.8 435.3 1460 436 1459.8 436.8C1459.6 437.6 1459.1 438.1 1458.4 438.3C1458 438.4 1413.7 450.3 1382.3 457.2C1379.3 457.6 1376.7 457.9 1374.3 457.9ZM1376.5 419.6C1367.5 419.6 1360.3 423.5 1356.8 430.3C1353.9 435.9 1354.3 442.2 1357.7 446.9C1362.1 452.9 1370.5 455.1 1381.5 453.2C1407.5 447.5 1442.4 438.3 1453.7 435.3C1444.9 427.7 1417.4 404.1 1396.7 387.5C1387.7 381 1379.1 379.3 1372.6 382.8C1367.5 385.5 1364.4 391.1 1364.5 397.4C1364.7 405.2 1369.5 411.9 1377.9 415.8C1378.8 416.2 1379.2 417.1 1379 418.1C1378.8 419 1378 419.7 1377.1 419.7C1376.7 419.6 1376.6 419.6 1376.5 419.6Z" fill="black"/>
<path d="M1457.7 438.4C1457.5 438.4 1457.4 438.4 1457.2 438.3L1376.3 419.5C1375.2 419.3 1374.6 418.2 1374.8 417.1C1375 416 1376.1 415.4 1377.2 415.6L1458.1 434.4C1459.2 434.6 1459.8 435.7 1459.6 436.8C1459.4 437.8 1458.6 438.4 1457.7 438.4Z" fill="black"/>
<path d="M1330.2 552.7C1329.1 552.7 1328.2 551.8 1328.2 550.7V297.7C1328.2 296.6 1329.1 295.7 1330.2 295.7C1331.3 295.7 1332.2 296.6 1332.2 297.7V550.7C1332.2 551.8 1331.3 552.7 1330.2 552.7Z" fill="black"/>
<path d="M1287.2 481C1330 472.7 1310.4 427.4 1277.6 440.2C1302.1 415 1267.9 379.3 1243.7 415.5C1225.3 446.3 1201.2 490.9 1201.2 490.9C1201.2 490.9 1251.7 486 1287.2 481Z" fill="white"/>
<path d="M1201.2 492.9C1200.5 492.9 1199.9 492.6 1199.5 492C1199.1 491.4 1199.1 490.6 1199.4 489.9C1199.6 489.5 1223.7 444.9 1241.9 414.4C1241.9 414.4 1241.9 414.3 1242 414.3C1252.5 398.6 1263.5 397.5 1269.2 398.2C1277.1 399.2 1283.8 404.9 1286.7 413C1289.4 420.7 1288.1 429.1 1283.2 436.5C1291.9 434.8 1300.2 436.9 1306.3 442.4C1312.6 448.1 1315.2 456.5 1313.1 464.1C1311.6 469.6 1306.2 479.3 1287.6 482.9H1287.5C1252.4 487.8 1201.9 492.8 1201.4 492.8C1201.3 492.9 1201.3 492.9 1201.2 492.9ZM1245.4 416.6C1230.1 442.2 1210.7 477.7 1204.8 488.6C1217.2 487.4 1257.4 483.2 1286.9 479.1C1299.1 476.7 1307 471.1 1309.2 463.1C1310.9 456.9 1308.8 450.1 1303.6 445.4C1297.2 439.6 1288 438.4 1278.4 442.1C1277.5 442.4 1276.5 442.1 1276 441.3C1275.5 440.5 1275.6 439.5 1276.2 438.8C1283.3 431.4 1285.8 422.5 1282.9 414.3C1280.6 407.7 1275.1 403 1268.7 402.2C1260.6 401.2 1252.3 406.3 1245.4 416.6Z" fill="black"/>
<path d="M1201.2 492.9C1200.6 492.9 1199.9 492.6 1199.5 492C1198.9 491.1 1199.1 489.8 1200.1 489.2L1276.5 438.5C1277.4 437.9 1278.7 438.1 1279.3 439.1C1279.9 440 1279.7 441.3 1278.7 441.9L1202.3 492.6C1202 492.8 1201.6 492.9 1201.2 492.9Z" fill="black"/>
<path d="M1394.9 461.1C1372.4 418.8 1331.1 454 1355 484.3C1320.6 466.7 1294.2 514.1 1340 527.9C1378.3 537.3 1432.9 548.2 1432.9 548.2C1432.9 548.2 1411.6 496.8 1394.9 461.1Z" fill="white"/>
<path d="M1432.9 550.2C1432.8 550.2 1432.6 550.2 1432.5 550.2C1432 550.1 1377.4 539.2 1339.5 529.9H1339.4C1319.6 523.9 1314.9 512.8 1313.8 506.6C1312.3 498 1316.1 489.3 1323.6 483.7C1330.9 478.3 1340.3 477.1 1349.7 480C1345 471.3 1344.4 461.8 1348.3 453.6C1352.3 445.2 1360.1 439.8 1368.8 439.6C1375 439.4 1386.9 441.9 1396.6 460.2V460.3C1413.1 495.6 1434.4 547 1434.6 547.5C1434.9 548.2 1434.8 549 1434.3 549.5C1434.1 549.9 1433.5 550.2 1432.9 550.2ZM1340.5 526C1372.6 533.9 1416.7 542.9 1429.6 545.5C1424.5 533.4 1407.1 491.9 1393.1 462C1386.7 449.9 1378.1 443.4 1369 443.6C1361.8 443.8 1355.3 448.3 1352 455.3C1347.9 464 1349.6 474.1 1356.6 483C1357.2 483.7 1357.2 484.8 1356.6 485.5C1356 486.2 1355 486.4 1354.1 486C1344 480.8 1333.8 481.1 1326 486.8C1319.7 491.4 1316.6 498.7 1317.8 505.8C1319.4 514.9 1327.4 522 1340.5 526Z" fill="black"/>
<path d="M1433 550.3C1432.6 550.3 1432.1 550.2 1431.7 549.8L1353.8 485.9C1352.9 485.2 1352.8 483.9 1353.5 483.1C1354.2 482.2 1355.5 482.1 1356.3 482.8L1434.2 546.7C1435.1 547.4 1435.2 548.7 1434.5 549.5C1434.2 550.1 1433.6 550.3 1433 550.3Z" fill="black"/>
<path d="M1298.9 357.8C1285.5 389.2 1323.5 396.4 1329.6 369.6L1330.3 297.7C1330.2 297.7 1311.2 332.6 1298.9 357.8Z" fill="white"/>
<path d="M1311.2 388.1C1306.1 388.1 1301.4 386 1298.2 382.2C1295.2 378.7 1291.2 370.8 1297.1 357V356.9C1303.6 343.6 1311.7 328.1 1317.4 317.3C1321.1 310.4 1323.9 305.1 1325.3 302.5C1329 295.6 1329 295.6 1330.3 295.6C1330.8 295.6 1331.3 295.8 1331.7 296.2C1332.1 296.6 1332.3 297.1 1332.3 297.6L1331.6 369.5C1331.6 369.6 1331.6 369.8 1331.6 369.9C1329.5 378.9 1323.6 385.5 1315.8 387.4C1314.2 387.9 1312.7 388.1 1311.2 388.1ZM1300.7 358.6C1297 367.4 1297.1 374.8 1301.2 379.6C1304.4 383.3 1309.6 384.9 1314.8 383.6C1321.2 382 1325.8 376.8 1327.6 369.3L1328.2 305.6C1322.1 317 1309.7 340.2 1300.7 358.6Z" fill="black"/>
<path d="M1277.9 442C1277.3 442 1276.6 441.7 1276.2 441.1C1275.6 440.2 1275.8 438.9 1276.8 438.3L1292.6 427.8C1302.1 421.4 1314.7 421.9 1323.8 429.1L1331.4 435.1C1332.3 435.8 1332.4 437 1331.7 437.9C1331 438.8 1329.8 438.9 1328.9 438.2L1321.3 432.2C1313.5 426.1 1302.9 425.7 1294.8 431.1L1279 441.6C1278.7 441.9 1278.3 442 1277.9 442Z" fill="black"/>
<path d="M1330.2 424.7C1329.6 424.7 1329 424.4 1328.6 423.9C1327.9 423 1328.1 421.8 1329 421.1L1335.1 416.6C1342 411.4 1350.8 409.6 1359.2 411.6L1373.6 414.9C1374.7 415.1 1375.4 416.2 1375.1 417.3C1374.9 418.4 1373.8 419 1372.7 418.8L1358.3 415.5C1351 413.8 1343.4 415.4 1337.4 419.9L1331.3 424.4C1331 424.6 1330.6 424.7 1330.2 424.7Z" fill="black"/>
<path d="M1355.2 486.2C1354.8 486.2 1354.3 486.1 1353.9 485.7L1329.5 465.8C1328.6 465.1 1328.5 463.8 1329.2 463C1329.9 462.1 1331.2 462 1332 462.7L1356.4 482.6C1357.3 483.3 1357.4 484.6 1356.7 485.4C1356.4 485.9 1355.8 486.2 1355.2 486.2Z" fill="black"/>
<path d="M1419.2 653.7H1242.2C1241.1 653.7 1240.2 652.8 1240.2 651.7C1240.2 650.6 1241.1 649.7 1242.2 649.7H1419.2C1420.3 649.7 1421.2 650.6 1421.2 651.7C1421.2 652.8 1420.3 653.7 1419.2 653.7Z" fill="black"/>
<path d="M166.7 926.4L147.2 905.3L155.6 874.4L173.2 871.2C177.2 870.9 181.1 870.4 184.9 869.8C218.6 864 237.2 846.3 237.4 846.1C237.4 846.1 247.7 836.8 269.3 812.2L295.3 796.4L343 907.4C337.8 913 332.9 918.6 329.2 922.9C324.4 928.6 322.8 930.9 322.5 932.3C292.6 954.8 263.7 972.5 236.7 985L166.7 926.4Z" fill="white"/>
<path d="M294.5 799.2L340.8 906.9C335.9 912.2 333.4 919 329.9 923.1C326.3 926.8 320.9 930.9 320.9 930.9C291.7 952.8 263.5 970.2 237.1 982.5L168.1 924.9L149.5 904.7L157.3 876L173.6 873.1C177.6 872.8 181.5 872.3 185.3 871.6C218.5 865.9 237.5 848.7 238.8 847.5C239.6 846.8 249.9 837.3 270.7 813.7L294.5 799.2ZM296.3 793.4L268.1 810.6C246.4 835.3 236.2 844.5 236.1 844.6C235.9 844.8 217.6 862.1 184.6 867.7C180.9 868.3 177 868.8 173 869.1L154 872.5L144.9 905.7L165.2 927.8L236.4 987.2L236.5 987.1C264.3 974.4 293.9 956.2 324.6 933L324.8 932.9L324.5 932.6C323.9 931.5 334.7 919 345.2 907.7L345.3 907.6L296.3 793.4Z" fill="black"/>
<path d="M236.1 844.8C235.8 844.4 210.7 800.1 231.6 783L231.9 782.8C231.9 782.8 232.3 782.5 232.8 782.5C234.8 782.5 241.6 783.5 250.4 789.7C260.3 796.6 268.4 810.6 268.5 810.8L268.6 810.9L268.5 811C246.7 835.7 236.6 844.9 236.5 845L236.3 845.2L236.1 844.8Z" fill="black"/>
<path d="M324.4 933C322.4 931 304.9 913.1 295.1 888.8C289.9 876 285.9 862 282.4 849.6C277.8 833.4 273.8 819.4 268.3 811C251.2 781.6 231.6 783 231.6 783C232.7 782.1 234 781.2 235.3 780.5C255.1 769.6 428.6 690.3 430.3 689.5L430.6 689.4L413.6 852.8C390.3 878.7 357.2 908.7 325 933.1L324.9 933.2L324.4 933Z" fill="#F696BB"/>
<path d="M413.2 876.9C412.8 876.8 368.1 862.8 357.3 841.1C354.6 835.6 354.2 830.1 356.1 824.6C356.3 824.3 360.3 820 370.7 820C376.7 820 383.7 821.5 391.4 824.5C400.2 827.9 408.6 832.3 416.4 837.4L416.5 837.5V837.6C416.3 865.2 413.5 876.6 413.5 876.7L413.4 876.9H413.2V876.9Z" fill="black"/>
<path d="M115 885.8C115.2 885.5 122.6 869.6 163.3 869.6C166.5 869.6 169.7 869.4 173 869.1H173.2L173.3 869.4C177.8 889.2 175.1 909.9 165.7 927.9L165.6 928.1L115 885.8Z" fill="#F9494B"/>
<path d="M631.3 581.8L616.2 650.7H776.2C776.2 650.7 722.2 546.7 715.2 539.7C705 529.5 631.3 581.8 631.3 581.8Z" fill="black"/>
<path d="M731.3 609C719.1 609 709.3 599.1 709.3 587C709.3 574.8 719.2 565 731.3 565C743.4 565 753.3 574.9 753.3 587C753.4 599.2 743.5 609 731.3 609Z" fill="white"/>
<path d="M731.3 567C742.4 567 751.3 576 751.3 587C751.3 598 742.3 607 731.3 607C720.3 607 711.3 598 711.3 587C711.3 576 720.3 567 731.3 567ZM731.3 563C718 563 707.3 573.8 707.3 587C707.3 600.2 718.1 611 731.3 611C744.5 611 755.3 600.2 755.3 587C755.3 573.8 744.6 563 731.3 563Z" fill="black"/>
<path d="M687.9 634.3C672.4 634.3 655.3 622 643.3 602.1C625.6 572.9 622.7 542.6 636.5 531.5C644.8 524.8 655.2 521.5 667.2 521.5C682.8 521.5 695.7 527.2 695.8 527.3C708.3 533.2 715.5 540.8 719 551.8C722.9 564.2 722.3 581 717 604.7C712.9 623.5 702.3 634.3 687.9 634.3Z" fill="white"/>
<path d="M667.3 519.5V523.5C682.1 523.5 694.5 528.8 695.1 529.1C715.8 538.8 726.3 554.8 715.2 604.2C711.1 622.3 701.4 632.3 688 632.3C673.2 632.3 656.8 620.3 645.1 601.1C636.5 586.9 631.2 572 630.2 559.1C629.2 547.1 632 537.9 637.9 533.1C645.9 526.7 655.8 523.5 667.4 523.5L667.3 519.5ZM667.3 519.5C656.9 519.5 645.4 521.9 635.3 530C620.9 541.5 623.1 572.6 641.6 603.2C654.5 624.5 672.3 636.3 687.9 636.3C702 636.3 714.2 626.5 719.1 605.1C730.1 556.2 720.9 536.8 696.8 525.5C696.8 525.4 683.5 519.5 667.3 519.5Z" fill="black"/>
<path d="M696.8 525.4C719.4 536.1 729 553.8 720.9 596.5C686.3 581.7 683.3 534.7 683.3 534.7C683.3 534.7 661.3 562.7 626.3 560.9C624.9 547.2 627.9 536 635.4 530C661.1 509.4 696.8 525.4 696.8 525.4Z" fill="black"/>
<path d="M661.4 595.5C661.2 595.5 661.1 595.5 660.9 595.4C658.8 594.9 656.8 593.7 655.3 592C653.2 589.4 652 584.4 650.9 573.7C650.8 572.6 651.6 571.6 652.7 571.5C653.8 571.4 654.8 572.2 654.9 573.3C655.8 582.8 656.9 587.6 658.4 589.4C659.3 590.5 660.5 591.2 661.8 591.5C662.9 591.8 663.5 592.8 663.3 593.9C663.1 594.9 662.3 595.5 661.4 595.5Z" fill="black"/>
<path d="M670.3 578C669.4 578 668.5 577.4 668.3 576.4L667.8 574C667.6 572.9 668.3 571.9 669.4 571.6C670.5 571.4 671.5 572.1 671.8 573.2L672.3 575.6C672.5 576.7 671.8 577.7 670.7 578C670.6 578 670.4 578 670.3 578Z" fill="black"/>
<path d="M642 578C641.1 578 640.3 577.4 640.1 576.5L639.5 574C639.2 572.9 639.9 571.8 641 571.6C642.1 571.3 643.2 572 643.4 573.1L644 575.6C644.3 576.7 643.6 577.8 642.5 578C642.3 578 642.2 578 642 578Z" fill="black"/>
<path d="M670.4 606.4C669.3 606.4 668.4 605.5 668.4 604.4C668.4 603.3 669.3 602.4 670.4 602.4C670.8 602.4 671.2 602.4 671.5 602.3C674.8 601.7 677.1 598.4 676.5 595.1C676.3 594 677 593 678.1 592.8C679.2 592.6 680.2 593.3 680.4 594.4C681.4 599.9 677.7 605.2 672.2 606.2C671.6 606.4 671 606.4 670.4 606.4Z" fill="black"/>
<path d="M733.7 589.7C733.6 589.7 733.6 589.7 733.5 589.7L721.7 588.6C720.6 588.5 719.8 587.5 719.9 586.4C720 585.3 721 584.5 722.1 584.6L733.9 585.7C735 585.8 735.8 586.8 735.7 587.9C735.6 588.9 734.7 589.7 733.7 589.7Z" fill="black"/>
<path d="M389.5 985.2C386.3 976.1 381.1 949.1 380.2 944.1L386.1 935.7C397.2 924.2 408.3 909.1 415 877C415 876.8 418 861.6 418 837.5C418 837.1 415.9 805.5 415.2 794.9L531.4 863.6L531 903.4C525.9 933.2 518.4 960.7 508.8 985.1L389.5 985.2Z" fill="white"/>
<path d="M417.5 798.6L529.4 864.8L529 903.3C524 932.4 516.8 959.3 507.4 983.2H390.9C388.3 974.9 384.3 955.7 382.2 944.6L387.6 937.1C398.8 925.4 410.2 910 416.9 877.5C416.9 877.3 420 861.9 420 837.7V837.6V837.5C420 837.1 418.3 811.5 417.5 798.6ZM413 791.3V791.7C413 792.2 416 837.2 416 837.6C416 861.4 413 876.5 413 876.7C406.4 908.4 395.4 923.2 384.5 934.5L378 943.7V943.8C378.1 944.1 384.5 978.4 388 987.1L388.1 987.2H510.2L510.3 987.1C520.2 962.3 527.9 934.2 533.1 903.7L533.5 862.6L413 791.3Z" fill="black"/>
<path d="M348.1 987C348.1 986.9 347.3 972.4 364.2 954.5C367.9 950.6 371.7 947 375.3 943.5C378.5 940.4 381.6 937.5 384.6 934.4L384.7 934.2L384.8 934.4C398.7 949.1 408.6 967.2 413.3 986.9V987.2L348.1 987.1V987V987Z" fill="#F9494B"/>
<path d="M707.2 986.9C685.8 986.9 662.5 985.4 635.1 967.9C601.5 946.4 570.2 906.1 539.4 844.5C539.3 849.1 538.3 872.7 533 903.7V903.9H532.8C532.6 903.9 508.8 901.7 482.1 884.9C468.3 876.2 459.5 869.4 450.2 862.1C440.9 854.9 431.4 847.5 416.4 838C373.8 811.3 356 824.6 356 824.6C362.8 805.3 386 746.9 425 663.6C434 644.4 455 631.5 477.2 631.5C519.1 631.5 565.9 667.7 597.7 698.1C631.4 730.2 655.9 762.7 657.3 764.5H779.3V764.6C794.4 810.6 801.5 850.5 800.3 883.3C799.3 911 792.5 933.8 780 951.1C756.1 984.3 718.3 986.9 707.2 986.9Z" fill="#F696BB"/>
<path d="M539.2 845.7C539.2 845.7 539.1 845.7 539.2 845.7C538 845.7 537.2 844.7 537.2 843.6C539.2 798.3 531.3 746.8 531.2 746.3C531 745.2 531.8 744.2 532.9 744C534 743.8 535 744.6 535.2 745.7C535.3 746.2 543.2 798.1 541.2 843.8C541.2 844.9 540.3 845.7 539.2 845.7Z" fill="black"/>
<path d="M687.6 813.7C686.9 813.7 686.3 813.4 685.9 812.7C676.3 796.6 665.8 780.4 655.6 765.8C655 764.9 655.2 763.6 656.1 763C657 762.4 658.3 762.6 658.9 763.5C669.2 778.2 679.7 794.5 689.4 810.6C690 811.5 689.7 812.8 688.7 813.3C688.3 813.6 688 813.7 687.6 813.7Z" fill="black"/>
<path d="M345.2 783.7L344.8 783.5C339.8 781.1 313.9 768.5 292.3 756.9C291.3 756.3 290.2 755.6 289.3 754.9L289 754.7L289.3 754.6C302.9 748.2 319 740.7 337.2 732.3L337.4 732.2V732.5C341.3 754.9 344.7 778.6 345.3 783.2L345.4 784L345.2 783.7Z" fill="#F9494B"/>
<path d="M290.7 877C287.9 868.7 285.4 860.3 283.4 853.1V853V852.9C289.3 843.4 294.6 834.9 299.3 827.6C304 821.1 309.6 817.6 315.2 817.6C320.6 817.6 325.4 821 327.5 826.3C328.5 828.7 330.9 836.9 322.9 845.1C325.1 844.4 327.2 844.1 329.2 844.1C338.9 844.1 344.7 851.1 345.2 857.8C345.7 864.3 341.3 872 327.6 874.1C317.2 875.2 304.8 876.2 290.9 877.2H290.8L290.7 877Z" fill="#F9494B"/>
<path d="M683.1 895.3C678.2 895.3 673.6 892.4 671.1 887.9C668.2 882.6 668.5 876.2 672 870.1C668.7 872.1 665.2 873.2 661.8 873.2C654.5 873.2 648.3 868.4 646.9 861.8C645.4 854.4 650.4 847.5 660.4 843.3C683.5 834.9 711 826.3 716.3 824.7L717.1 824.4L716.9 825.2C715.3 830.5 707.1 858.1 699.1 881.4C695.5 890.2 689.7 895.3 683.1 895.3Z" fill="#F9494B"/>
<path d="M506.2 682.1C500 682.1 495 678.1 493.4 672C492 666.5 493.5 658.4 502.3 653.1C502 653.1 501.6 653.1 501.3 653.1C494.7 653.1 489.2 650.3 486.1 645.4C483.4 641.2 483 636.2 485 632L485.1 631.9H485.2C502.7 633.7 522.2 641.3 543.2 654.5L543.4 654.6L543.2 654.8C534.8 662.8 527.2 669.9 520.6 675.9C515.7 680 510.7 682.1 506.2 682.1Z" fill="#F9494B"/>
<path d="M764 915.5C753.3 915.5 748.4 908.9 748.3 902.3C748.1 894.8 753.8 886.9 765 886C755.7 881.9 752.8 873.8 754 867.5C755.3 860.9 760.5 856.7 767.2 856.7C771.3 856.7 775.7 858.2 780.4 861.2C786.4 865.4 793.1 870.4 800.5 875.8L800.6 875.9V876C800.7 886.2 799.8 896.5 798.1 906.6V906.7H798C788.1 909.8 779.1 912.5 771.2 914.7C768.6 915.2 766.2 915.5 764 915.5Z" fill="#F9494B"/>
<path d="M580.1 913.1C574.6 905.6 569 897.1 563.4 888V887.9C563.6 879.6 563.8 872 564.1 865.3C565.4 851.7 572.7 846.8 579.1 846.8C583.5 846.8 587.8 849 590.6 852.7C593.8 856.9 594.7 862.4 593.3 868.3C597.1 864.1 601.9 861.8 606.9 861.8C613.1 861.8 618.6 865.4 620.5 870.9C622.8 877.3 619.7 884.6 612.1 890.8C603.3 897.3 592.6 904.8 580.5 913.2L580.3 913.3L580.1 913.1Z" fill="#F9494B"/>
<path d="M466.4 874.3C460.5 870 455.4 866.2 450.1 862L447.5 860L447.6 859.9C453.4 846.7 458.7 835.1 463.4 825.3C467.7 817.5 473.4 813.2 479.5 813.2C484.6 813.2 489.3 816.3 491.6 821.2C494.3 826.9 493.4 833.7 489 839.5C491.9 838.2 494.7 837.5 497.5 837.5C505.2 837.5 511.9 842.8 512.9 849.9C514.2 859.2 505.8 865.1 497.5 867.5C488.6 869.6 478.3 871.9 466.6 874.3H466.4Z" fill="#F9494B"/>
<path d="M422.3 784.7C416.8 784.7 411.2 781.2 406.5 774.7C401.1 766.5 395 756.8 388.2 745.8L388.1 745.7V745.6C390.9 739.1 393.9 732.3 396.9 725.4L397 725.3H397.1C411.1 726.2 424 727.2 434.5 728.3C448.2 730.4 452.6 738 452.1 744.5C451.6 751.1 445.8 758.2 436.1 758.2C434.1 758.2 432 757.9 429.8 757.2C437.9 765.3 435.5 773.6 434.5 776C432.5 781.3 427.6 784.7 422.3 784.7Z" fill="#F9494B"/>
<path d="M702.9 986.9C694.8 986.9 686.6 986.2 678.5 984.9H678.4V984.8C672.1 975.3 666.6 966.6 662 959.2C657.8 951.6 657.2 944.6 660.2 939.5C662.6 935.5 666.9 933.1 671.9 933.1C677.5 933.1 684.5 936.3 687.8 945.3C689.3 934.5 697.1 929.6 703.9 929.6C708.1 929.6 712 931.5 714.4 934.7C716.7 937.8 718.9 943.5 716 953.3C712.6 962.9 708.4 974.1 703.6 986.7L703.5 986.9H702.9Z" fill="#F9494B"/>
<path d="M356.7 826.4C356.5 826.4 356.3 826.4 356 826.3C355 825.9 354.4 824.8 354.8 823.7C362.4 802.3 381.6 755.4 407.3 698.6C407.8 697.6 408.9 697.1 409.9 697.6C410.9 698.1 411.4 699.2 410.9 700.2C385.3 757 366.1 803.8 358.6 825.1C358.3 825.9 357.5 826.4 356.7 826.4Z" fill="black"/>
<path d="M788.2 796.7H677.2C676.1 796.7 675.2 795.8 675.2 794.7C675.2 793.6 676.1 792.7 677.2 792.7H788.2C789.3 792.7 790.2 793.6 790.2 794.7C790.2 795.8 789.3 796.7 788.2 796.7Z" fill="black"/>
<path d="M493.5 772.3C484.3 765.8 474.5 758.9 464.3 753C432.3 734.2 421.2 733.6 409.4 732.8C406.1 732.6 402.6 732.4 398.6 731.7C393.4 730.8 390.2 729.1 389 726.5C387.3 723 389.8 718.7 389.8 718.6L390.5 717.4L389.7 716.3C384.3 709.3 390.8 703.8 391.5 703.2L392.9 702.1L392 700.6C390.6 698.2 390.2 696 390.8 694.1C391.9 690.5 396.1 688.5 396.2 688.5L397.4 688V686.7C397.4 678.1 410 672.8 430.4 672.8C444.1 672.8 459.8 675.2 475.9 679.6C487.7 682.9 503.6 688.4 523.3 696L563.8 715.6L528.3 790.9L493.5 772.3Z" fill="white"/>
<path d="M430.2 674.8C443.7 674.8 459.2 677.1 475.1 681.6C486.8 684.9 502.7 690.3 522.3 697.9L560.9 716.6L527.4 788.2L494.5 770.6C485.3 764.1 475.5 757.2 465.2 751.3C432.8 732.3 421.4 731.6 409.5 730.9C406.2 730.7 402.8 730.5 398.9 729.8C395.8 729.3 391.9 728.2 390.8 725.7C389.6 723.2 391.5 719.7 391.5 719.7L392.9 717.4L391.3 715.2C389.5 712.8 389.1 710.6 390.2 708.3C391.1 706.3 392.8 704.9 392.8 704.9L395.6 702.7L393.8 699.7C392.7 697.8 392.3 696.2 392.8 694.8C393.5 692.5 396.1 690.8 397.1 690.4L399.4 689.3V686.7C399.2 679.5 411.4 674.8 430.2 674.8ZM430.2 670.8C409.4 670.8 395.2 676.3 395.2 686.7C395.2 686.7 384.2 691.7 390.2 701.7C390.2 701.7 381.2 708.7 388 717.6C388 717.6 380.2 730.7 398.2 733.7C416.2 736.7 422.2 730.7 463.2 754.7C473.2 760.6 482.8 767.2 492.4 774L529.2 793.7L566.2 714.7L523.9 694.2C506.6 687.5 489.5 681.5 476.2 677.7C459.5 673 443.5 670.8 430.2 670.8Z" fill="black"/>
<path d="M597.1 819.9C595.7 819.9 594.2 819.9 592.8 819.8C553.3 817.5 524.1 796.8 496 776.8L492.2 774.1L523.9 693.9L524.1 694C561 708.2 599.3 725.2 602.2 726.5C603.3 724.1 615.8 698.5 635.1 664.7C656.1 628 671.3 615.6 695.3 615.6C707.2 615.6 721.3 618.3 750.4 650.7C781 684.8 799.3 713.6 800.5 729.8C801.5 744.3 795.7 753.1 790.7 758C785.2 763.2 779.4 765 779.4 765H682.5C680.7 767.5 647.6 819.9 597.1 819.9Z" fill="#F9494B"/>
<path d="M682.2 766.7C681.8 766.7 681.5 766.6 681.2 766.4C680.3 765.8 680 764.6 680.5 763.6C688 751.5 699.3 733.1 713.4 698.9C713.8 697.9 715 697.4 716 697.8C717 698.2 717.5 699.4 717.1 700.4C702.9 734.9 691.5 753.4 684 765.7C683.5 766.4 682.9 766.7 682.2 766.7Z" fill="black"/>
<path d="M459.3 691.7C459.1 691.7 459 691.7 458.8 691.6C458.5 691.5 424.2 682.8 397 690.6C395.9 690.9 394.8 690.3 394.5 689.2C394.2 688.1 394.8 687 395.9 686.7C424.1 678.6 458.3 687.3 459.8 687.7C460.9 688 461.5 689.1 461.2 690.1C461 691.1 460.2 691.7 459.3 691.7Z" fill="black"/>
<path d="M454.5 706.7C454.3 706.7 454.2 706.7 454 706.6C453.7 706.5 424 698.8 392.9 704.6C391.8 704.8 390.8 704.1 390.6 703C390.4 701.9 391.1 700.9 392.2 700.7C424.3 694.7 453.8 702.4 455.1 702.7C456.2 703 456.8 704.1 456.5 705.1C456.2 706.1 455.4 706.7 454.5 706.7Z" fill="black"/>
<path d="M449.5 721.7C449.4 721.7 449.3 721.7 449.2 721.7C418 716.5 401.6 717.9 390.9 719.7C389.8 719.9 388.8 719.1 388.6 718.1C388.4 717 389.2 716 390.2 715.8C401.3 714 418.1 712.5 449.9 717.8C451 718 451.7 719 451.5 720.1C451.3 721 450.5 721.7 449.5 721.7Z" fill="black"/>
<path d="M325.2 390.1C324.7 390.1 324.2 389.9 323.8 389.5L288.3 352.8L252.8 389.5C252 390.3 250.8 390.3 250 389.5C249.2 388.7 249.2 387.5 250 386.7L286.9 348.5C287.7 347.7 289 347.7 289.8 348.5L326.7 386.7C327.5 387.5 327.4 388.8 326.7 389.5C326.2 389.9 325.7 390.1 325.2 390.1Z" fill="black"/>
<path d="M374.3 385.4H202.2V576.7H374.3V385.4Z" fill="white"/>
<path d="M374.3 578.7H202.2C201.1 578.7 200.2 577.8 200.2 576.7V385.4C200.2 384.3 201.1 383.4 202.2 383.4H374.3C375.4 383.4 376.3 384.3 376.3 385.4V576.7C376.3 577.8 375.4 578.7 374.3 578.7ZM204.2 574.7H372.3V387.4H204.2V574.7Z" fill="black"/>
<path d="M334.2 427.6C333.7 427.6 333.2 427.4 332.8 427C332 426.2 332 425 332.8 424.2L370.1 386.9C370.9 386.1 372.1 386.1 372.9 386.9C373.7 387.7 373.7 388.9 372.9 389.7L335.6 427C335.2 427.4 334.7 427.6 334.2 427.6Z" fill="black"/>
<path d="M242.4 427.6C241.9 427.6 241.4 427.4 241 427L203.7 389.7C202.9 388.9 202.9 387.7 203.7 386.9C204.5 386.1 205.7 386.1 206.5 386.9L243.8 424.2C244.6 425 244.6 426.2 243.8 427C243.4 427.4 242.9 427.6 242.4 427.6Z" fill="black"/>
<path d="M288.3 365.4C295.093 365.4 300.6 359.893 300.6 353.1C300.6 346.307 295.093 340.8 288.3 340.8C281.507 340.8 276 346.307 276 353.1C276 359.893 281.507 365.4 288.3 365.4Z" fill="white"/>
<path d="M288.3 367.4C280.4 367.4 274 361 274 353.1C274 345.2 280.4 338.8 288.3 338.8C296.2 338.8 302.6 345.2 302.6 353.1C302.6 361 296.2 367.4 288.3 367.4ZM288.3 342.8C282.6 342.8 278 347.4 278 353.1C278 358.8 282.6 363.4 288.3 363.4C294 363.4 298.6 358.8 298.6 353.1C298.6 347.4 294 342.8 288.3 342.8Z" fill="black"/>
<path d="M205.1 575.8C204.6 575.8 204.1 575.6 203.7 575.2C202.9 574.4 202.9 573.2 203.7 572.4L241 535.1C241.8 534.3 243 534.3 243.8 535.1C244.6 535.9 244.6 537.1 243.8 537.9L206.5 575.2C206.1 575.6 205.6 575.8 205.1 575.8Z" fill="black"/>
<path d="M371.5 575.8C371 575.8 370.5 575.6 370.1 575.2L332.8 537.9C332 537.1 332 535.9 332.8 535.1C333.6 534.3 334.8 534.3 335.6 535.1L372.9 572.4C373.7 573.2 373.7 574.4 372.9 575.2C372.5 575.6 372 575.8 371.5 575.8Z" fill="black"/>
<path d="M334.1 425.7H242.5V536.5H334.1V425.7Z" fill="white"/>
<path d="M332.1 427.7V534.5H244.5V427.7H332.1ZM336.1 423.7H240.5V538.5H336.1V423.7Z" fill="black"/>
<path d="M1369.3 783C1368.2 782.1 1366.9 781.2 1365.6 780.5C1345.8 769.6 1172.4 690.3 1170.6 689.5L1170.3 689.4L1187.3 852.8C1210.5 878.7 1243.7 908.8 1275.9 933.1L1276.3 933.2L1276.5 933C1278.4 931.1 1295.9 913.1 1305.8 888.8C1311 875.9 1315 861.9 1318.5 849.6C1323.1 833.4 1327.1 819.4 1332.6 811C1345.9 789.1 1361.4 783 1369.3 783Z" fill="#6C79D9"/>
<path d="M1184.2 837.6L1184.3 837.4C1192.1 832.2 1200.6 827.9 1209.3 824.5C1217 821.5 1224 820 1230 820C1240.3 820 1244.4 824.3 1244.5 824.5C1246.5 830 1246.1 835.6 1243.3 841.1C1232.4 862.7 1187.8 876.7 1187.4 876.9L1187.2 877C1187.2 877 1184.4 865.1 1184.2 837.6Z" fill="black"/>
<path d="M1364.3 844.8C1364.2 844.7 1354 835.5 1332.3 810.8L1332.2 810.7L1332.3 810.6C1332.4 810.5 1340.5 797.6 1349.3 790.6C1358.4 783.3 1367.1 783 1368.8 783C1369 783 1369.1 783 1369.1 783H1369.3C1390.2 800.1 1364.9 844.4 1364.7 844.8L1364.6 845L1364.3 844.8Z" fill="black"/>
<path d="M1025.2 659.7H1075.2L1088.2 562.7H1012.2L1025.2 659.7Z" fill="#F9494B"/>
<path d="M1050.2 591.7C1071.19 591.7 1088.2 578.268 1088.2 561.7C1088.2 545.131 1071.19 531.7 1050.2 531.7C1029.21 531.7 1012.2 545.131 1012.2 561.7C1012.2 578.268 1029.21 591.7 1050.2 591.7Z" fill="#F696BB"/>
<path d="M1050.2 562.7C1049.1 562.7 1048.2 561.8 1048.2 560.7V507.7C1048.2 506.6 1049.1 505.7 1050.2 505.7C1051.3 505.7 1052.2 506.6 1052.2 507.7V560.7C1052.2 561.8 1051.3 562.7 1050.2 562.7Z" fill="black"/>
<path d="M1075.1 661.1C1072.7 661.1 1070.8 660.2 1069.9 658.4C1068.9 656.5 1069.3 654 1070.9 651.8L1072.1 650.2L1070.4 649C1070.4 649 1067 646.6 1067 643.4C1067 641.4 1068.4 639.3 1071.1 637.2L1074 635.1L1070.7 633.8C1070.7 633.8 1067 632.3 1066.5 629.3C1066 626.8 1067.8 623.6 1071.6 620.1L1073.3 618.5L1071.5 617C1071.5 617 1067.8 614 1067.8 610.2C1067.8 608.1 1069 606 1071.5 604.1C1073.7 602.3 1081.7 597.7 1084.6 596.1L1085.4 595.6L1086.6 589.1C1089.6 590.6 1091.5 593 1092.3 596.2C1093.5 601.1 1091.6 606.4 1089.9 608.2L1088 610.1L1090.3 611.4C1090.4 611.4 1092.6 612.8 1093.3 615.7C1094.1 618.7 1093.1 622.3 1090.5 626.6L1089.5 628.2L1091 629.3C1091 629.3 1093.3 631.1 1093.7 634.2C1094 636.7 1093 639.5 1090.6 642.4L1089.6 643.6L1090.6 644.8C1090.7 644.9 1092.4 647.2 1091.6 650.3C1090.7 653.8 1086.8 657 1080.4 659.7C1078.5 660.7 1076.7 661.1 1075.1 661.1Z" fill="white"/>
<path d="M1088 592.7C1089.1 593.8 1089.9 595.2 1090.3 596.8C1091.3 601.1 1089.6 605.6 1088.4 606.9L1084.7 610.6L1089.3 613.2C1089.3 613.2 1090.8 614.2 1091.4 616.2C1092 618.6 1091.2 621.9 1088.9 625.6L1086.8 628.7L1089.9 630.8C1090.1 630.9 1091.2 631.9 1091.6 633.5C1092.3 635.7 1091.5 638.3 1089.2 641.1L1087 643.6L1089.2 646.1C1089.4 646.4 1090.4 647.9 1089.9 649.9C1089.1 652.7 1085.6 655.5 1079.8 657.9C1078.1 658.6 1076.5 659 1075.2 659C1074.2 659 1072.5 658.8 1071.8 657.4C1071.2 656.2 1071.5 654.5 1072.6 652.9L1075 649.6L1071.7 647.3C1071 646.8 1069.1 645.1 1069.1 643.3C1069.1 641.6 1070.9 639.9 1072.4 638.7L1078.1 634.4L1071.4 631.8C1071 631.6 1068.7 630.4 1068.4 628.8C1068.1 627.1 1069.7 624.4 1072.9 621.4L1076.3 618.3L1072.7 615.4C1071.9 614.7 1069.7 612.4 1069.7 610.2C1069.7 608.7 1070.7 607.2 1072.6 605.6C1074.5 604.1 1081.5 600 1085.4 597.8L1087.1 596.9L1087.4 595L1088 592.7ZM1085 586.5L1083.6 594.5C1083.6 594.5 1073 600.4 1070.2 602.7C1060.2 610.7 1070.2 618.7 1070.2 618.7C1057.2 630.7 1069.9 635.7 1069.9 635.7C1059.2 643.7 1069.2 650.7 1069.2 650.7C1065.2 656.3 1067.9 663.1 1075 663.1C1076.8 663.1 1078.9 662.7 1081.2 661.7C1100.2 653.7 1092.2 643.7 1092.2 643.7C1100.2 633.7 1092.2 627.7 1092.2 627.7C1100.2 614.7 1091.2 609.7 1091.2 609.7C1095.2 605.7 1098.2 590.7 1085 586.5Z" fill="black"/>
<path d="M1073.3 620.7C1072.5 620.7 1071.7 620.2 1071.4 619.3C1071.1 618.3 1071.6 617.1 1072.7 616.8C1072.8 616.8 1082.4 613.6 1087.4 608C1088.1 607.2 1089.4 607.1 1090.2 607.9C1091 608.6 1091.1 609.9 1090.3 610.7C1084.5 617 1074.3 620.4 1073.8 620.5C1073.7 620.7 1073.5 620.7 1073.3 620.7Z" fill="black"/>
<path d="M1072.2 637.7C1071.3 637.7 1070.5 637.1 1070.3 636.2C1070 635.1 1070.6 634 1071.7 633.7C1075.4 632.6 1085.7 629.1 1088.7 625.4C1089.4 624.5 1090.7 624.4 1091.5 625.1C1092.4 625.8 1092.5 627 1091.8 627.9C1087.5 633.2 1074.3 637.1 1072.8 637.6C1072.6 637.7 1072.4 637.7 1072.2 637.7Z" fill="black"/>
<path d="M1072.2 653C1071.3 653 1070.5 652.4 1070.3 651.5C1070 650.4 1070.6 649.3 1071.7 649C1071.8 649 1083.4 645.8 1088.9 641.1C1089.7 640.4 1091 640.5 1091.7 641.4C1092.4 642.3 1092.3 643.5 1091.4 644.2C1085.1 649.4 1073.2 652.8 1072.6 652.9C1072.6 653 1072.4 653 1072.2 653Z" fill="black"/>
<path d="M1312.3 958.6C1300.3 950.9 1288.1 942.3 1275.9 933.2L1275.7 933.1L1276 932.8C1278 930.8 1295.4 912.9 1305.2 888.7C1310.4 875.9 1314.4 861.9 1317.9 849.6C1322.6 833.3 1326.6 819.1 1332.2 810.7L1332.3 810.5L1332.5 810.7C1354.2 835.4 1364.4 844.6 1364.5 844.7C1364.8 845 1391 869.6 1437.4 869.6C1458.6 869.6 1470.6 874 1476.9 877.6C1483.8 881.6 1485.5 885.5 1485.6 885.7L1485.7 885.8L1407.3 951.3L1407.2 951.2C1395 941.4 1379.6 936 1363.9 936H1363.7C1344.3 936 1325.6 944.2 1312.6 958.6L1312.5 958.7L1312.3 958.6Z" fill="#98D8F4"/>
<path d="M1364 987.2C1346.2 978.9 1328.8 969.3 1312.3 958.6L1312.1 958.5L1312.3 958.3C1325.5 943.8 1344.3 935.5 1363.8 935.5C1379.6 935.5 1395.1 940.9 1407.4 950.8L1407.6 951L1364.2 987.3L1364 987.2Z" fill="#6C79D9"/>
<path d="M1147.7 987.2C1139.5 957 1112 936 1080.8 935.9C1078.8 935.9 1076.7 936 1074.5 936.2H1074.4L1074.3 936C1071.7 925.5 1069.5 914.6 1067.6 903.7V903.6L1067.7 903.5C1087.1 892.5 1183.6 837.4 1184.4 837.4H1184.6V837.6C1184.6 861.4 1187.6 876.5 1187.6 876.7C1194.2 908.4 1205.2 923.2 1216.1 934.5C1219.1 937.7 1222.2 940.6 1225.5 943.6C1229.1 947 1232.9 950.6 1236.6 954.6C1253.5 972.5 1252.7 986.9 1252.7 987.1V987.3H1147.7V987.2Z" fill="#98D8F4"/>
<path d="M1090.4 987.2C1083.9 970.5 1078.4 953.4 1074.3 936.1L1074.2 935.9H1074.4C1076.6 935.7 1078.7 935.6 1080.8 935.6C1112.2 935.6 1139.8 956.8 1148.1 987L1148.2 987.3H1090.4V987.2V987.2Z" fill="#6C79D9"/>
<path d="M947.2 810.7C926.6 810.7 909.5 798.2 895.1 772.4C881.1 747.4 871.7 713.2 865.1 686.2C863.3 678.7 863.7 673.1 866.5 669.6C869.1 666.3 874 664.6 881 664.6C906.1 664.6 948.9 686.2 949.3 686.5L951 687.3L952 685.7C965.5 663.1 984.4 637.2 1002.5 616.2C1023.4 592.1 1035.3 583.5 1039.2 583.5C1039.4 583.5 1039.5 583.5 1039.6 583.6C1040.7 584 1041.4 584.7 1041.8 585.7C1042.9 588.8 1041.4 594.9 1037.6 602.8C1034.6 609.2 1031.1 614.5 1031.1 614.6L1030.7 615.3L1030.8 616.1C1030.8 616.3 1034 636.4 1022.7 650.5L1022.2 651.2L1023.5 661.8H1064.4C1056.6 682 1005.4 810.7 947.2 810.7Z" fill="white"/>
<path d="M1039.1 585.5C1039.5 585.7 1039.7 585.9 1039.9 586.3C1041.6 591.1 1034.6 605.3 1029.4 613.4L1028.6 614.7L1028.8 616.2C1028.8 616.4 1031.8 635.7 1021.1 649L1020 650.3L1020.2 652L1021.2 660L1021.6 663.5H1025.1H1061.3C1056.7 675.3 1044.7 704.9 1027.9 734.1C1008.5 768 978.7 808.5 947 808.5C927.1 808.5 910.7 796.3 896.7 771.2C882.8 746.4 873.5 712.4 866.9 685.5C865.2 678.6 865.5 673.6 867.9 670.6C870.1 667.8 874.5 666.4 880.8 666.4C905.4 666.4 947.8 687.8 948.2 688L951.5 689.7L953.4 686.5C966.9 664 985.7 638.1 1003.7 617.3C1024.1 594.3 1036 585.7 1039.1 585.5ZM1039.2 581.5C1026.8 581.5 979.3 636.1 950.2 684.7C950.2 684.7 906.9 662.6 881 662.6C867.5 662.6 858.8 668.6 863.2 686.7C878.7 749.8 900.2 812.7 947.2 812.7C1012.2 812.7 1067.2 659.7 1067.2 659.7H1025.2L1024.2 651.7C1036.2 636.7 1032.7 615.7 1032.7 615.7C1032.7 615.7 1052.2 585.7 1040.2 581.7C1039.9 581.6 1039.6 581.5 1039.2 581.5Z" fill="black"/>
<path d="M869.3 609C857.1 609 847.3 599.1 847.3 587C847.3 574.8 857.2 565 869.3 565C881.5 565 891.3 574.9 891.3 587C891.3 599.2 881.4 609 869.3 609Z" fill="white"/>
<path d="M869.3 567C880.4 567 889.3 576 889.3 587C889.3 598 880.3 607 869.3 607C858.3 607 849.3 598 849.3 587C849.3 576 858.2 567 869.3 567ZM869.3 563C856 563 845.3 573.8 845.3 587C845.3 600.2 856.1 611 869.3 611C882.5 611 893.3 600.2 893.3 587C893.3 573.8 882.6 563 869.3 563Z" fill="black"/>
<path d="M912.7 634.3C898.4 634.3 887.7 623.5 883.5 604.6C872.1 553.9 883.2 537.4 904.7 527.2C904.8 527.2 917.7 521.4 933.3 521.4C945.4 521.4 955.7 524.8 964 531.4C977.8 542.4 974.9 572.8 957.2 602C945.2 621.9 928.1 634.3 912.7 634.3Z" fill="white"/>
<path d="M933.3 523.5C944.9 523.5 954.8 526.7 962.8 533.1C968.8 537.9 971.5 547.1 970.5 559.1C969.4 572 964.1 586.9 955.6 601.1C944 620.4 927.5 632.3 912.7 632.3C899.2 632.3 889.5 622.3 885.5 604.2C874.4 554.8 884.9 538.8 905.6 529.1C906.1 528.8 918.4 523.5 933.3 523.5ZM933.3 519.5C917.1 519.5 903.9 525.5 903.9 525.5C879.8 536.8 870.6 556.2 881.6 605.1C886.4 626.5 898.6 636.3 912.8 636.3C928.4 636.3 946.2 624.4 959.1 603.2C977.6 572.6 979.8 541.6 965.4 530C955.2 521.9 943.6 519.5 933.3 519.5Z" fill="black"/>
<path d="M939.2 595.5C938.3 595.5 937.5 594.9 937.3 594C937 592.9 937.7 591.8 938.8 591.6C940.1 591.3 941.3 590.5 942.2 589.4C943.7 587.6 944.7 582.8 945.6 573.3C945.7 572.2 946.7 571.4 947.8 571.5C948.9 571.6 949.7 572.6 949.6 573.7C948.5 584.5 947.4 589.4 945.3 592C943.8 593.8 941.8 595 939.7 595.5C939.5 595.5 939.4 595.5 939.2 595.5Z" fill="black"/>
<path d="M930.3 578C930.2 578 930 578 929.9 578C928.8 577.8 928.1 576.7 928.4 575.6L928.9 573.2C929.1 572.1 930.2 571.4 931.3 571.6C932.4 571.8 933.1 572.9 932.8 574L932.3 576.4C932.1 577.4 931.2 578 930.3 578Z" fill="black"/>
<path d="M958.6 578C958.4 578 958.3 578 958.1 577.9C957 577.6 956.4 576.6 956.6 575.5L957.2 573C957.5 571.9 958.5 571.3 959.6 571.5C960.7 571.8 961.3 572.8 961.1 573.9L960.5 576.4C960.3 577.4 959.5 578 958.6 578Z" fill="black"/>
<path d="M930.2 606.4C929.6 606.4 929 606.4 928.3 606.3C922.8 605.3 919.1 600 920.1 594.5C920.3 593.4 921.3 592.7 922.4 592.9C923.5 593.1 924.2 594.1 924 595.2C923.7 596.8 924.1 598.4 925 599.8C926 601.2 927.4 602.1 929 602.4C929.3 602.5 929.7 602.5 930.1 602.5C931.2 602.5 932.1 603.4 932.1 604.5C932.1 605.6 931.3 606.4 930.2 606.4Z" fill="black"/>
<path d="M866.9 589.7C865.9 589.7 865 588.9 864.9 587.9C864.8 586.8 865.6 585.8 866.7 585.7L878.5 584.6C879.6 584.5 880.6 585.3 880.7 586.4C880.8 587.5 880 588.5 878.9 588.6L867.1 589.7C867 589.7 867 589.7 866.9 589.7Z" fill="black"/>
<path d="M999.2 522.7C991.2 510.3 965.6 508.9 953.1 523C929.6 513.9 903.8 525.4 903.8 525.4C881.2 536.1 871.6 553.8 879.7 596.5C914.3 581.7 917.3 534.7 917.3 534.7C917.3 534.7 938.3 561.4 971.9 560.9C972 560.9 972.1 560.9 972.1 560.9C972.8 560.9 973.5 560.9 974.2 560.8V560.7C998 558.4 1009.9 539.2 999.2 522.7Z" fill="black"/>
<path d="M893.4 986.9C882.4 986.9 844.5 984.3 820.5 951.1C808 933.9 801.2 911.1 800.2 883.3C799 850.5 806.1 810.6 821.2 764.6V764.5H943.2C944.6 762.7 969.1 730.1 1002.8 698.1C1034.6 667.7 1081.4 631.5 1123.3 631.5C1145.5 631.5 1166.5 644.4 1175.5 663.6C1214.5 746.9 1237.7 805.4 1244.5 824.6C1244.5 824.6 1225.2 811.3 1184.1 838C1169.2 847.5 1159.6 855 1150.3 862.1C1140.9 869.4 1132.1 876.2 1118.4 884.9C1091.7 901.7 1067.9 903.9 1067.7 903.9H1067.5V903.7C1062.2 872.7 1061.3 849.1 1061.1 844.5C1030.3 906 998.9 946.4 965.4 967.9C938 985.4 914.8 986.9 893.4 986.9Z" fill="#6C79D9"/>
<path d="M1061.6 845.7C1060.5 845.7 1059.7 844.9 1059.6 843.8C1057.6 798.1 1065.5 746.2 1065.6 745.7C1065.8 744.6 1066.8 743.9 1067.9 744C1069 744.2 1069.7 745.2 1069.6 746.3C1069.5 746.8 1061.7 798.3 1063.6 843.6C1063.6 844.7 1062.8 845.7 1061.6 845.7C1061.6 845.7 1061.7 845.7 1061.6 845.7Z" fill="black"/>
<path d="M913.2 813.7C912.9 813.7 912.5 813.6 912.2 813.4C911.3 812.8 910.9 811.6 911.5 810.7C921.1 794.6 931.7 778.3 942 763.6C942.6 762.7 943.9 762.5 944.8 763.1C945.7 763.7 945.9 765 945.3 765.9C935.1 780.5 924.6 796.7 915 812.8C914.5 813.4 913.9 813.7 913.2 813.7Z" fill="black"/>
<path d="M1244.1 826.4C1243.3 826.4 1242.5 825.9 1242.2 825.1C1234.6 803.8 1215.5 757 1189.9 700.4C1189.4 699.4 1189.9 698.2 1190.9 697.8C1191.9 697.3 1193.1 697.8 1193.5 698.8C1219.2 755.6 1238.4 802.5 1246 823.9C1246.4 824.9 1245.8 826.1 1244.8 826.5C1244.5 826.4 1244.3 826.4 1244.1 826.4Z" fill="black"/>
<path d="M923.2 796.7H812.2C811.1 796.7 810.2 795.8 810.2 794.7C810.2 793.6 811.1 792.7 812.2 792.7H923.2C924.3 792.7 925.2 793.6 925.2 794.7C925.2 795.8 924.3 796.7 923.2 796.7Z" fill="black"/>
<path d="M909.8 908C908.4 908 907.1 907.9 905.8 907.6C877.8 902.3 883.1 847.6 887 807.7C887.5 803 887.9 798.6 888.2 794.6C888.3 793.5 889.2 792.7 890.4 792.8C891.5 792.9 892.3 793.9 892.2 795C891.9 799 891.4 803.5 891 808.2C887.5 844.4 882.2 899.2 906.6 903.8C907.7 904 908.8 904.1 909.9 904.1C939.2 904.1 981.6 836.5 1010 791.2C1016.4 781 1022.4 771.4 1027.6 763.7C1049.4 731 1077.4 693.8 1100.5 696.4C1110.4 697.5 1118.3 705.8 1124.1 721.1C1132 741.9 1164.8 850.1 1165.1 851.2C1165.4 852.3 1164.8 853.4 1163.8 853.7C1162.7 854 1161.6 853.4 1161.3 852.4C1161 851.3 1128.2 743.2 1120.3 722.5C1115.1 708.8 1108.2 701.3 1100 700.4C1078.8 698 1050.4 736.6 1030.9 765.9C1025.8 773.6 1019.8 783.2 1013.4 793.3C982.8 842 941.4 908 909.8 908Z" fill="black"/>
<path d="M1317.2 853.7C1316.8 853.7 1316.4 853.6 1316 853.3L1231 793.3C1230.1 792.7 1229.9 791.4 1230.5 790.5C1231.1 789.6 1232.4 789.4 1233.3 790L1318.3 850C1319.2 850.6 1319.4 851.9 1318.8 852.8C1318.4 853.4 1317.8 853.7 1317.2 853.7Z" fill="black"/>
<path d="M1003.5 817.7C977.3 817.7 956 803 942.8 790.7C928.4 777.3 920.1 763.8 920.1 763.7C913 752.7 907 741.1 902.1 729L891.9 703.9L964.7 675.2L977.5 690.7C989.4 712.8 996.5 727.5 996.6 727.7L997.4 729.5L999.2 728.7C1000 728.3 1082.6 691.6 1124.9 679.8C1140.9 675.3 1156.7 673 1170.4 673C1190.8 673 1203.4 678.3 1203.4 686.9V688.2L1204.6 688.7C1204.6 688.7 1208.8 690.7 1209.9 694.3C1210.5 696.3 1210.1 698.5 1208.7 700.8L1207.8 702.3L1209.2 703.4C1210 704 1216.4 709.4 1211 716.5L1210.2 717.6L1210.9 718.8C1210.9 718.8 1213.4 723.1 1211.7 726.7C1210.5 729.3 1207.2 731.1 1202.1 731.9C1198.1 732.6 1194.6 732.8 1191.3 733C1179.6 733.7 1168.5 734.4 1136.4 753.2C1125 759.8 1114.1 767.6 1103.4 775.2C1075.5 795 1046.6 815.5 1007.7 817.8C1006.3 817.6 1004.9 817.7 1003.5 817.7Z" fill="white"/>
<path d="M1170.4 674.8C1189.2 674.8 1201.4 679.5 1201.4 686.7V689.3L1203.7 690.4C1204.7 690.9 1207.3 692.5 1208 694.8C1208.4 696.2 1208.1 697.8 1207 699.7L1205.2 702.7L1208 704.9C1208 704.9 1209.7 706.3 1210.6 708.3C1211.7 710.6 1211.3 712.8 1209.5 715.2L1207.8 717.3L1209.2 719.6C1209.2 719.6 1211.1 723.1 1209.9 725.6C1208.7 728.1 1204.8 729.2 1201.8 729.7C1197.9 730.4 1194.5 730.6 1191.2 730.8C1179.2 731.5 1167.9 732.2 1135.5 751.2C1124.1 757.9 1113 765.7 1102.4 773.3C1074.7 793 1046.1 813.3 1007.8 815.5C1006.5 815.6 1005.1 815.6 1003.7 815.6C978.2 815.6 957.5 801.3 944.5 789.3C930.2 776.1 922 762.7 922 762.5V762.4V762.3C915 751.5 909 739.9 904.2 728L894.7 704.7L964.2 677.2L976 691.4C987.8 713.3 994.9 728 994.9 728.1L996.6 731.6L1000.2 730C1001 729.6 1083.4 693 1125.6 681.2C1141.3 677.1 1156.8 674.8 1170.4 674.8ZM1170.4 670.8C1157.1 670.8 1141.1 673 1124.4 677.7C1081.4 689.7 998.4 726.7 998.4 726.7C998.4 726.7 991.3 711.9 979.2 689.5L965.3 672.7L889.3 702.7L900.3 729.7C905.2 741.9 911.3 753.6 918.4 764.7C918.4 764.7 951.6 819.7 1003.6 819.7C1005 819.7 1006.4 819.7 1007.9 819.6C1062.3 816.4 1096.5 778.8 1137.5 754.8C1178.5 730.8 1184.5 736.8 1202.5 733.8C1220.5 730.8 1212.7 717.7 1212.7 717.7C1219.5 708.8 1210.5 701.8 1210.5 701.8C1216.5 691.8 1205.5 686.8 1205.5 686.8C1205.4 676.3 1191.2 670.8 1170.4 670.8Z" fill="black"/>
<path d="M821.4 764.9C821.1 764.8 798.2 757.5 800.2 729.7C801.4 713.5 819.6 684.6 850.3 650.6C879.4 618.2 893.5 615.5 905.4 615.5C929.4 615.5 944.6 627.9 965.6 664.6C970.3 672.8 974.9 681.1 979.4 689.4L979.5 689.6L900.6 729.8C905.5 741.9 911.4 753.6 918.5 764.6L918.7 764.9H821.4V764.9Z" fill="#98D8F4"/>
<path d="M1141.4 691.7C1140.5 691.7 1139.7 691.1 1139.5 690.2C1139.2 689.1 1139.9 688 1140.9 687.8C1142.3 687.4 1176.5 678.8 1204.8 686.8C1205.9 687.1 1206.5 688.2 1206.2 689.3C1205.9 690.4 1204.8 691 1203.7 690.7C1176.5 682.9 1142.3 691.6 1141.9 691.7C1141.7 691.7 1141.6 691.7 1141.4 691.7Z" fill="black"/>
<path d="M1146.2 706.7C1145.3 706.7 1144.5 706.1 1144.3 705.2C1144 704.1 1144.7 703 1145.7 702.8C1146.9 702.5 1176.5 694.8 1208.6 700.8C1209.7 701 1210.4 702 1210.2 703.1C1210 704.2 1208.9 704.9 1207.9 704.7C1176.7 698.9 1147.1 706.6 1146.8 706.7C1146.5 706.7 1146.4 706.7 1146.2 706.7Z" fill="black"/>
<path d="M1151.2 721.7C1150.2 721.7 1149.4 721 1149.2 720C1149 718.9 1149.8 717.9 1150.8 717.7C1182.6 712.4 1199.4 713.9 1210.5 715.7C1211.6 715.9 1212.3 716.9 1212.1 718C1211.9 719.1 1210.9 719.8 1209.8 719.6C1199 717.8 1182.6 716.4 1151.5 721.6C1151.4 721.7 1151.3 721.7 1151.2 721.7Z" fill="black"/>
<path d="M1109.9 774.8C1109.1 774.8 1108.4 774.3 1108.1 773.6L1075.3 694.8C1074.9 693.8 1075.4 692.6 1076.4 692.2C1077.4 691.8 1078.6 692.3 1079 693.3L1111.8 772.1C1112.2 773.1 1111.7 774.3 1110.7 774.7C1110.4 774.8 1110.2 774.8 1109.9 774.8Z" fill="black"/>
<path d="M903.2 732.8C902.4 732.8 901.7 732.4 901.4 731.6C897.1 722 891.3 708.2 888.4 700.4C888 699.4 888.5 698.2 889.6 697.8C890.6 697.4 891.8 697.9 892.2 699C895.1 706.7 900.9 720.4 905.2 730C905.6 731 905.2 732.2 904.2 732.6C903.7 732.7 903.5 732.8 903.2 732.8Z" fill="black"/>
<path d="M1093.2 753.7C1104.8 753.7 1114.2 744.298 1114.2 732.7C1114.2 721.102 1104.8 711.7 1093.2 711.7C1081.6 711.7 1072.2 721.102 1072.2 732.7C1072.2 744.298 1081.6 753.7 1093.2 753.7Z" fill="white"/>
<path d="M1093.2 755.7C1080.5 755.7 1070.2 745.4 1070.2 732.7C1070.2 720 1080.5 709.7 1093.2 709.7C1105.9 709.7 1116.2 720 1116.2 732.7C1116.2 745.4 1105.9 755.7 1093.2 755.7ZM1093.2 713.7C1082.7 713.7 1074.2 722.2 1074.2 732.7C1074.2 743.2 1082.7 751.7 1093.2 751.7C1103.7 751.7 1112.2 743.2 1112.2 732.7C1112.2 722.2 1103.7 713.7 1093.2 713.7Z" fill="black"/>
<path d="M757.1 864.7C756.2 864.7 755.2 864.6 754.3 864.5C750.1 863.8 746.4 861.4 744 857.9C741.6 854.4 740.6 850.2 741.3 846C742.6 838.3 749.3 832.8 757 832.8C757.9 832.8 758.9 832.9 759.8 833L761.9 833.4L762.1 831.2C762.2 830 762.5 828.9 762.8 827.7C765 821.1 771.1 816.7 778 816.7C779.7 816.7 781.4 817 783 817.5L784.6 818L785.4 816.5C787 813.4 789.6 810.8 792.7 809.3C794.9 808.2 797.2 807.7 799.7 807.7C805.9 807.7 811.4 811.1 814.1 816.7L814.9 818.3L816.6 817.7C817.9 817.2 819.3 816.9 820.7 816.8C821.2 816.8 821.7 816.7 822.2 816.7C830.5 816.7 837.3 822.9 838.1 831.2L838.3 833.4L840.4 833C841.3 832.8 842.2 832.8 843.1 832.7C851.9 832.7 859.1 839.9 859.1 848.7C859.1 857.5 851.9 864.7 843.1 864.7H757.1V864.7Z" fill="white"/>
<path d="M799.7 809.7C805.1 809.7 809.9 812.7 812.3 817.6L813.9 820.9L817.3 819.6C818.4 819.2 819.6 818.9 820.9 818.8C821.3 818.8 821.8 818.7 822.2 818.7C829.4 818.7 835.4 824.1 836.1 831.4L836.5 835.7L840.8 834.9C841.6 834.8 842.4 834.7 843.2 834.7C850.9 834.7 857.2 841 857.2 848.7C857.2 856.4 850.9 862.7 843.2 862.7H757.2C756.4 862.7 755.6 862.6 754.8 862.5C751.1 861.9 747.9 859.8 745.8 856.8C743.7 853.7 742.8 850 743.5 846.3C744.7 839.6 750.5 834.7 757.3 834.7C758.1 834.7 758.9 834.8 759.7 834.9L764 835.6L764.4 831.3C764.5 830.3 764.7 829.3 765 828.3C766.9 822.5 772.2 818.7 778.3 818.7C779.8 818.7 781.2 818.9 782.6 819.4L785.9 820.5L787.4 817.4C788.8 814.7 791 812.4 793.8 811.1C795.5 810.2 797.5 809.7 799.7 809.7ZM799.7 805.7C797.1 805.7 794.4 806.3 791.9 807.5C788.4 809.2 785.5 812.1 783.7 815.6C781.8 815 780 814.7 778.1 814.7C770.5 814.7 763.5 819.5 761 827.1C760.6 828.4 760.3 829.7 760.2 831C759.2 830.8 758.1 830.7 757.1 830.7C748.5 830.7 740.9 836.9 739.4 845.6C737.7 855.4 744.2 864.7 754 866.4C755 866.6 756.1 866.7 757.1 866.7H843.1C853 866.7 861.1 858.6 861.1 848.7C861.1 838.8 853 830.7 843.1 830.7C842.1 830.7 841 830.8 840 831C839.1 821.7 831.3 814.7 822.1 814.7C821.5 814.7 821 814.7 820.4 814.8C818.8 814.9 817.3 815.3 815.8 815.8C812.7 809.4 806.3 805.7 799.7 805.7Z" fill="black"/>
<path d="M756.2 984.7L727 851.4H873.1L843.9 984.7H756.2Z" fill="white"/>
<path d="M870.6 853.4L842.3 982.7H757.7L729.4 853.4H870.6V853.4ZM875.6 849.4H724.6L754.6 986.7H845.6L875.6 849.4Z" fill="black"/>
<path d="M785.2 984.7L769.8 851.4H830.3L814.9 984.7H785.2Z" fill="white"/>
<path d="M828.1 853.4L813.1 982.7H787.1L772.1 853.4H828.1V853.4ZM832.6 849.4H767.6L783.5 986.7H816.7L832.6 849.4Z" fill="black"/>
</svg>
